<?xml version="1.0" standalone="no"?>
<!DOCTYPE svg PUBLIC "-//W3C//DTD SVG 20010904//EN"
 "http://www.w3.org/TR/2001/REC-SVG-20010904/DTD/svg10.dtd">
<svg version="1.0" xmlns="http://www.w3.org/2000/svg"
 width="700.000000pt" height="700.000000pt" viewBox="0 0 700.000000 700.000000"
 preserveAspectRatio="xMidYMid meet">
<metadata>
Created by potrace 1.14, written by Peter Selinger 2001-2017
</metadata>
<g transform="translate(0.000000,700.000000) scale(0.100000,-0.100000)"
fill="#000000" stroke="none">
<path d="M3250 6993 c-176 -16 -317 -36 -495 -69 -70 -13 -239 -58 -353 -95
-631 -205 -1200 -596 -1621 -1113 -64 -79 -241 -321 -241 -330 0 -1 -26 -45
-57 -97 -206 -342 -368 -781 -429 -1165 -3 -20 -7 -45 -9 -54 -2 -10 -6 -40
-10 -67 -4 -26 -9 -59 -11 -73 -18 -116 -26 -599 -11 -730 16 -145 19 -169 33
-255 57 -343 162 -666 321 -985 529 -1061 1585 -1832 2668 -1947 138 -15 460
-8 570 12 278 51 481 209 600 468 56 121 78 227 79 372 1 166 -22 262 -107
445 -105 225 -115 490 -26 720 84 218 260 408 472 507 61 28 157 58 239 74 44
8 255 13 713 14 452 2 665 6 700 14 370 86 632 348 706 706 16 75 18 122 15
280 -3 105 -7 197 -10 205 -2 8 -7 42 -11 75 -44 448 -220 979 -454 1364 -28
46 -51 86 -51 88 0 6 -133 197 -179 258 -110 144 -181 224 -327 369 -278 278
-578 490 -947 670 -85 42 -159 76 -164 76 -5 0 -27 8 -49 19 -137 66 -522 172
-744 206 -25 4 -52 9 -60 10 -8 2 -44 6 -80 10 -36 4 -81 10 -100 12 -44 5
-523 10 -570 6z m360 -883 c148 -40 264 -153 310 -301 18 -62 20 -160 4 -224
-40 -154 -150 -269 -303 -317 -60 -19 -189 -18 -251 1 -41 12 -138 69 -168 97
-173 166 -184 437 -25 614 107 119 280 171 433 130z m-1765 -870 c214 -56 350
-237 339 -448 -19 -367 -451 -548 -725 -304 -94 84 -142 195 -143 327 0 120
36 210 121 300 99 106 274 159 408 125z m3493 -1 c229 -47 378 -264 341 -497
-45 -290 -365 -451 -629 -317 -103 52 -201 177 -225 285 -24 108 -5 232 48
323 56 95 177 186 268 202 19 3 35 7 36 9 9 8 113 5 161 -5z m-3940 -1749
c128 -26 249 -119 304 -231 37 -75 43 -108 43 -214 -1 -83 -4 -96 -37 -165
-110 -226 -363 -316 -588 -208 -117 56 -215 185 -237 313 -54 304 214 565 515
505z"/>
</g>
</svg>
